<!--
Licensed to the Apache Software Foundation (ASF) under one or more
contributor license agreements.  See the NOTICE file distributed with
this work for additional information regarding copyright ownership.
The ASF licenses this file to You under the Apache License, Version 2.0
(the "License"); you may not use this file except in compliance with
the License.  You may obtain a copy of the License at

    http://www.apache.org/licenses/LICENSE-2.0

Unless required by applicable law or agreed to in writing, software
distributed under the License is distributed on an "AS IS" BASIS,
WITHOUT WARRANTIES OR CONDITIONS OF ANY KIND, either express or implied.
See the License for the specific language governing permissions and
limitations under the License.
-->
<svg width="100" height="100" viewBox="0 0 100 100" fill="none" xmlns="http://www.w3.org/2000/svg">
  <rect width="100" height="100" rx="20" fill="#F01F7A"/>
  <path d="M50 20C33.431 20 20 33.431 20 50C20 66.569 33.431 80 50 80C66.569 80 80 66.569 80 50C80 33.431 66.569 20 50 20ZM50 72C38.954 72 30 63.046 30 52C30 40.954 38.954 32 50 32C61.046 32 70 40.954 70 52C70 63.046 61.046 72 50 72Z" fill="white"/>
  <path d="M50 40C45.582 40 42 43.582 42 48C42 52.418 45.582 56 50 56C54.418 56 58 52.418 58 48C58 43.582 54.418 40 50 40Z" fill="white"/>
</svg>

